<svg width="28" height="23" viewBox="0 0 28 23" fill="none" xmlns="http://www.w3.org/2000/svg">
<path d="M18.2227 13.9592V9.82068H22.3126V7.06165L27.7657 11.89L22.3126 16.7183V13.9592H18.2227ZM16.8594 5.26827V7.06165H0.5V5.26827L8.67972 0.164062L16.8594 5.26827ZM7.31643 8.44116H10.043V15.3387H7.31643V8.44116ZM1.86329 8.44116H4.58986V15.3387H1.86329V8.44116ZM15.4962 8.44116V11.89L12.7696 14.3731V8.44116H15.4962ZM10.1793 16.7183L9.36137 17.408L11.679 19.4773H0.5V16.7183H10.1793ZM20.9493 15.3387V19.4773H16.8594V22.2363L11.4063 17.408L16.8594 12.5797V15.3387H20.9493Z" fill="#9EA2A8"/>
</svg>
