<svg width="14" height="14" viewBox="0 0 14 14" fill="none" xmlns="http://www.w3.org/2000/svg">
<path fill-rule="evenodd" clip-rule="evenodd" d="M12.1624 5.71524C12.2385 5.79141 12.2812 5.89466 12.2812 6.00232C12.2812 6.10998 12.2385 6.21323 12.1624 6.2894L8.09994 10.3519C8.06275 10.3918 8.0179 10.4238 7.96807 10.446C7.91823 10.4682 7.86444 10.4802 7.80989 10.4811C7.75534 10.4821 7.70116 10.4721 7.65058 10.4516C7.59999 10.4312 7.55404 10.4008 7.51546 10.3622C7.47688 10.3236 7.44647 10.2777 7.42604 10.2271C7.40561 10.1765 7.39557 10.1223 7.39654 10.0678C7.3975 10.0132 7.40944 9.95945 7.43164 9.90961C7.45385 9.85978 7.48586 9.81493 7.52577 9.77774L10.8949 6.40857L2.12536 6.40857C2.01761 6.40857 1.91428 6.36577 1.8381 6.28958C1.76191 6.2134 1.71911 6.11006 1.71911 6.00232C1.71911 5.89458 1.76191 5.79125 1.8381 5.71506C1.91428 5.63887 2.01761 5.59607 2.12536 5.59607L10.8949 5.59607L7.52577 2.2269C7.48586 2.18971 7.45385 2.14486 7.43164 2.09503C7.40944 2.0452 7.3975 1.9914 7.39654 1.93685C7.39557 1.88231 7.40561 1.82812 7.42604 1.77754C7.44647 1.72695 7.47689 1.681 7.51546 1.64243C7.55404 1.60385 7.59999 1.57344 7.65058 1.553C7.70116 1.53257 7.75534 1.52254 7.80989 1.5235C7.86444 1.52446 7.91823 1.5364 7.96807 1.55861C8.0179 1.58081 8.06275 1.61282 8.09994 1.65274L12.1624 5.71524Z" fill="black"/>
</svg>
