<svg width="19" height="21" viewBox="0 0 19 21" fill="none" xmlns="http://www.w3.org/2000/svg">
<path d="M16.9609 2.19531H15.9609V0.195312H13.9609V2.19531H5.96094V0.195312H3.96094V2.19531H2.96094C2.4305 2.19531 1.9218 2.40603 1.54672 2.7811C1.17165 3.15617 0.960938 3.66488 0.960938 4.19531V18.1953C0.960938 18.7257 1.17165 19.2345 1.54672 19.6095C1.9218 19.9846 2.4305 20.1953 2.96094 20.1953H16.9609C18.0609 20.1953 18.9609 19.2953 18.9609 18.1953V4.19531C18.9609 3.09531 18.0609 2.19531 16.9609 2.19531ZM9.96094 5.19531C11.6209 5.19531 12.9609 6.53531 12.9609 8.19531C12.9609 9.85531 11.6209 11.1953 9.96094 11.1953C8.30094 11.1953 6.96094 9.85531 6.96094 8.19531C6.96094 6.53531 8.30094 5.19531 9.96094 5.19531ZM15.9609 17.1953H3.96094V16.1953C3.96094 14.1953 7.96094 13.0953 9.96094 13.0953C11.9609 13.0953 15.9609 14.1953 15.9609 16.1953V17.1953Z" fill="#9EA2A8"/>
</svg>
