<svg width="20" height="21" viewBox="0 0 20 21" fill="none" xmlns="http://www.w3.org/2000/svg">
<path d="M8.03265 15.7005C8.03265 16.6905 8.28318 17.6164 8.71409 18.4505H2.01988C0.907519 18.4505 0.015625 17.6347 0.015625 16.6172V1.95052C0.015625 1.46429 0.226787 0.997975 0.602658 0.654158C0.978528 0.310342 1.48832 0.117188 2.01988 0.117188H3.02201V6.53385L5.52733 5.15885L8.03265 6.53385V0.117188H14.0454C14.577 0.117188 15.0868 0.310342 15.4626 0.654158C15.8385 0.997975 16.0497 1.46429 16.0497 1.95052V9.35719C15.719 9.31135 15.3883 9.28386 15.0475 9.28386C11.1693 9.28386 8.03265 12.153 8.03265 15.7005ZM19.8577 16.9839C19.958 16.9839 19.958 17.0755 19.8577 17.1672L18.8556 18.7255C18.7554 18.8172 18.6552 18.8172 18.555 18.8172L17.3524 18.4505C17.0518 18.6339 16.8514 18.7255 16.5507 18.9089L16.3503 20.1005C16.3503 20.1922 16.2501 20.2839 16.1499 20.2839H14.1456C14.0454 20.2839 13.9452 20.1922 13.845 20.1005L13.6446 18.9089C13.3439 18.8172 13.0433 18.6339 12.8429 18.4505L11.6403 18.9089C11.5401 18.9089 11.4399 18.9089 11.3397 18.8172L10.3375 17.2589C10.2373 17.1672 10.3375 17.0755 10.4378 16.9839L11.5401 16.2505V15.3339L10.4378 14.6005C10.3375 14.5089 10.3375 14.4172 10.3375 14.3255L11.3397 12.7672C11.4399 12.6755 11.5401 12.6755 11.6403 12.6755L12.8429 13.1339C13.1435 12.9505 13.3439 12.8589 13.6446 12.6755L13.845 11.4839C13.845 11.3922 13.9452 11.3005 14.1456 11.3005H16.1499C16.2501 11.3005 16.3503 11.3922 16.3503 11.4839L16.5507 12.6755C16.8514 12.7672 17.152 12.9505 17.4526 13.1339L18.6552 12.6755C18.7554 12.6755 18.9558 12.6755 18.9558 12.7672L19.958 14.3255C20.0582 14.4172 19.958 14.5089 19.8577 14.6005L18.7554 15.3339V16.2505L19.8577 16.9839ZM16.5507 15.7005C16.5507 14.9672 15.8492 14.3255 15.0475 14.3255C14.2458 14.3255 13.5443 14.9672 13.5443 15.7005C13.5443 16.4339 14.2458 17.0755 15.0475 17.0755C15.8492 17.0755 16.5507 16.4339 16.5507 15.7005Z" fill="#9EA2A8"/>
</svg>
