<svg width="19" height="19" viewBox="0 0 19 19" fill="none" xmlns="http://www.w3.org/2000/svg">
<path fill-rule="evenodd" clip-rule="evenodd" d="M9.58082 0.500006C11.6152 0.499724 13.5867 1.20482 15.1594 2.4952C16.7321 3.78558 17.8087 5.58141 18.2058 7.57662C18.6029 9.57182 18.2959 11.6431 17.3371 13.4373C16.3783 15.2315 14.827 16.6377 12.9476 17.4163C11.0682 18.195 8.97691 18.2979 7.03013 17.7075C5.08334 17.117 3.40151 15.8699 2.27121 14.1785C1.1409 12.4871 0.632061 10.456 0.831385 8.43142C1.03071 6.40687 1.92586 4.51408 3.36432 3.07555C4.17977 2.25791 5.14874 1.60949 6.21557 1.16749C7.2824 0.725495 8.42606 0.498645 9.58082 0.500006ZM11.1037 6.13329C11.1054 5.95203 11.071 5.77225 11.0024 5.60446C10.9338 5.43666 10.8325 5.28423 10.7043 5.15606C10.5761 5.02789 10.4236 4.92656 10.2558 4.858C10.088 4.78944 9.90822 4.75506 9.72696 4.7568C9.546 4.75349 9.36634 4.78779 9.19934 4.85755C9.03234 4.92731 8.88167 5.03092 8.75684 5.16196C8.62806 5.28849 8.5262 5.43981 8.4574 5.60672C8.38859 5.77364 8.35426 5.95276 8.35647 6.13329C8.36117 6.49451 8.50795 6.83928 8.76504 7.09305C9.02214 7.34682 9.36886 7.48914 9.7301 7.48914C10.0914 7.48914 10.4381 7.34682 10.6952 7.09305C10.9523 6.83928 11.099 6.49451 11.1037 6.13329ZM12.0014 13.2987V12.9683C11.5492 12.9386 11.2559 12.808 11.1284 12.5754C11.013 12.2486 10.9672 11.9013 10.994 11.5558V8.17364H7.47744V8.52219C7.92637 8.55193 8.21914 8.68763 8.35043 8.92441C8.46536 9.24745 8.51126 9.59107 8.48519 9.93295V11.5595C8.48519 12.149 8.42455 12.5122 8.30465 12.6491C8.19671 12.7572 8.06737 12.8414 7.9249 12.8965C7.78243 12.9516 7.63002 12.9763 7.47744 12.969V13.2994L12.0014 13.2987ZM13.7481 5.12509C12.784 4.16061 11.5153 3.56027 10.1582 3.42636C8.80105 3.29246 7.43949 3.63331 6.3055 4.39077C5.17151 5.14824 4.33526 6.27543 3.93924 7.58036C3.54321 8.88529 3.61192 10.2872 4.13366 11.5471C4.65541 12.8071 5.59788 13.8471 6.80051 14.4901C8.00314 15.133 9.39152 15.339 10.729 15.073C12.0665 14.8071 13.2704 14.0856 14.1356 13.0314C15.0007 11.9773 15.4736 10.6557 15.4736 9.29202C15.4746 8.51803 15.3226 7.75153 15.0265 7.03643C14.7304 6.32133 14.2959 5.67181 13.7481 5.12509Z" fill="#9EA2A8"/>
</svg>
