<svg width="23" height="23" viewBox="0 0 23 23" fill="none" xmlns="http://www.w3.org/2000/svg">
<path d="M18.7326 19.1901L19.4909 18.4318L17.4596 16.4005V13.3672H16.3763V16.8339L18.7326 19.1901ZM16.918 22.0339C15.4194 22.0339 14.1421 21.5059 13.0862 20.45C12.0296 19.3934 11.5013 18.1158 11.5013 16.6172C11.5013 15.1186 12.0296 13.841 13.0862 12.7844C14.1421 11.7285 15.4194 11.2005 16.918 11.2005C18.4166 11.2005 19.6942 11.7285 20.7508 12.7844C21.8067 13.841 22.3346 15.1186 22.3346 16.6172C22.3346 18.1158 21.8067 19.3934 20.7508 20.45C19.6942 21.5059 18.4166 22.0339 16.918 22.0339ZM5.0013 6.86719H15.8346V4.70052H5.0013V6.86719ZM10.0659 19.8672H0.667969V0.367188H20.168V9.79219C19.6444 9.53941 19.1164 9.34983 18.5841 9.22344C18.0511 9.09705 17.4957 9.03385 16.918 9.03385C16.7194 9.03385 16.5345 9.03819 16.3633 9.04685C16.1914 9.05624 16.0152 9.07899 15.8346 9.1151V9.03385H5.0013V11.2005H11.6367C11.3117 11.5075 11.0181 11.8415 10.756 12.2026C10.4945 12.5637 10.2645 12.9519 10.0659 13.3672H5.0013V15.5339H9.41589C9.37977 15.7144 9.35703 15.8906 9.34764 16.0625C9.33897 16.2337 9.33464 16.4186 9.33464 16.6172C9.33464 17.213 9.3888 17.7684 9.49714 18.2834C9.60547 18.7976 9.79505 19.3255 10.0659 19.8672Z" fill="#9EA2A8"/>
</svg>
