<svg width="20" height="21" viewBox="0 0 20 21" fill="none" xmlns="http://www.w3.org/2000/svg">
<path d="M17.668 0.195312H2.33464C1.28047 0.195312 0.417969 1.09531 0.417969 2.19531V20.1953L4.2513 16.1953H17.668C18.7221 16.1953 19.5846 15.2953 19.5846 14.1953V2.19531C19.5846 1.09531 18.7221 0.195312 17.668 0.195312ZM10.9596 12.1953H9.04297V10.1953H10.9596V12.1953ZM12.6846 7.19531C12.3971 7.59531 12.0138 7.79531 11.6305 7.99531C11.343 8.19531 11.2471 8.29531 11.1513 8.49531C10.9596 8.69531 10.9596 8.89531 10.9596 9.19531H9.04297C9.04297 8.69531 9.1388 8.39531 9.33047 8.09531C9.52214 7.89531 9.90547 7.59531 10.3846 7.29531C10.6721 7.19531 10.8638 6.99531 10.9596 6.79531C11.0555 6.59531 11.1513 6.29531 11.1513 6.09531C11.1513 5.79531 11.0555 5.59531 10.8638 5.39531C10.6721 5.19531 10.3846 5.09531 10.0971 5.09531C9.80964 5.09531 9.61797 5.19531 9.4263 5.29531C9.23464 5.39531 9.1388 5.59531 9.1388 5.89531H7.22214C7.31797 5.19531 7.60547 4.59531 8.08464 4.19531C8.5638 3.79531 9.23464 3.69531 10.0971 3.69531C10.9596 3.69531 11.7263 3.89531 12.2055 4.29531C12.6846 4.69531 12.9721 5.29531 12.9721 5.99531C13.068 6.39531 12.9721 6.79531 12.6846 7.19531Z" fill="#9EA2A8"/>
</svg>
