<svg width="11" height="12" viewBox="0 0 11 12" fill="none" xmlns="http://www.w3.org/2000/svg">
<path d="M2.2 7.27188H8.8V6.17188H2.2V7.27188ZM2.2 5.62188H8.8V4.52188H2.2V5.62188ZM2.2 3.97188H8.8V2.87188H2.2V3.97188ZM11 11.6719L8.8 9.47188H1.1C0.7975 9.47188 0.538633 9.36426 0.3234 9.14903C0.108167 8.93379 0.000366667 8.67474 0 8.37188V1.77188C0 1.46938 0.1078 1.21051 0.3234 0.995275C0.539 0.780042 0.797867 0.672242 1.1 0.671875H9.9C10.2025 0.671875 10.4615 0.779675 10.6771 0.995275C10.8927 1.21088 11.0004 1.46974 11 1.77188V11.6719ZM1.1 8.37188H9.2675L9.9 8.99063V1.77188H1.1V8.37188Z" fill="white"/>
</svg>
