<svg width="8" height="10" viewBox="0 0 8 10" fill="none" xmlns="http://www.w3.org/2000/svg">
<path d="M6.11949 3.78774C6.4948 3.53307 6.80042 3.19865 7.0113 2.81188C7.22218 2.4251 7.33233 1.99698 7.33272 1.5626V1.25008H7.99933V0H0V1.25008H0.666611V1.5626C0.666602 1.99546 0.775788 2.42218 0.985251 2.80792C1.19471 3.19367 1.49852 3.52748 1.87184 3.78211C2.09486 3.91313 2.2826 4.09066 2.42043 4.30088C2.55826 4.5111 2.64245 4.74832 2.66644 4.99406C2.63832 5.24541 2.55154 5.48787 2.41225 5.70424C2.27297 5.92061 2.0846 6.10557 1.86051 6.24602C1.49562 6.50052 1.19817 6.83042 0.991236 7.21013C0.784302 7.58985 0.673449 8.00915 0.667278 8.43553V8.74992H0.000666563V10H8V8.74992H7.33339V8.4374C7.32804 8.01324 7.21894 7.5959 7.01449 7.21749C6.81005 6.83909 6.51572 6.50973 6.15415 6.25477C5.92826 6.11594 5.7377 5.9322 5.596 5.7166C5.4543 5.501 5.36493 5.2588 5.33422 5.00719C5.35516 4.7618 5.43641 4.52429 5.57161 4.31327C5.7068 4.10225 5.89227 3.92344 6.11349 3.79086L6.11949 3.78774ZM4.66628 5.00031C4.68865 5.3404 4.79105 5.67163 4.96612 5.97022C5.1412 6.26881 5.3846 6.52736 5.67886 6.7273C5.97339 6.92063 6.21592 7.17556 6.38727 7.47193C6.55861 7.7683 6.65408 8.09798 6.66611 8.4349V8.75055H5.9995C5.9995 8.75055 4.91959 6.56291 3.99967 6.56291C3.07974 6.56291 1.99983 8.75055 1.99983 8.75055H1.33322V8.43803C1.34424 8.1032 1.43778 7.7753 1.60651 7.48003C1.77524 7.18475 2.01459 6.93011 2.30581 6.73605C2.60274 6.5371 2.84885 6.27881 3.02638 5.97983C3.20392 5.68085 3.30843 5.34864 3.33239 5.00719C3.31385 4.67466 3.21418 4.35056 3.04106 4.05983C2.86794 3.76909 2.62598 3.51948 2.33381 3.33021C2.02658 3.13391 1.77489 2.87049 1.60046 2.56265C1.42603 2.25481 1.33408 1.91181 1.33256 1.56322V1.2507H6.66544V1.56322C6.6648 1.90917 6.57477 2.24982 6.40307 2.55602C6.23137 2.86222 5.98311 3.12486 5.67953 3.32146C5.38512 3.50905 5.14059 3.75753 4.9648 4.04774C4.78901 4.33795 4.68665 4.66214 4.66561 4.99531L4.66628 5.00031Z" fill="white"/>
</svg>
